<?xml version="1.0" standalone="no"?>
<!DOCTYPE svg PUBLIC "-//W3C//DTD SVG 20010904//EN"
 "http://www.w3.org/TR/2001/REC-SVG-20010904/DTD/svg10.dtd">
<svg version="1.0" xmlns="http://www.w3.org/2000/svg"
 width="850.000000pt" height="850.000000pt" viewBox="0 0 850.000000 850.000000"
 preserveAspectRatio="xMidYMid meet">

<g transform="translate(0.000000,850.000000) scale(0.100000,-0.100000)"
fill="#000000" stroke="none">
<path d="M8108 8486 c-35 -14 -249 -136 -993 -566 -187 -108 -448 -259 -580
-335 -132 -76 -276 -159 -320 -185 -44 -25 -204 -117 -355 -204 -151 -87 -342
-198 -425 -246 -210 -122 -548 -316 -1815 -1048 -157 -90 -373 -215 -480 -277
-107 -62 -474 -274 -815 -470 -1035 -597 -2004 -1156 -2130 -1230 -146 -86
-184 -143 -185 -276 0 -122 41 -205 124 -254 23 -13 167 -75 321 -138 154 -63
573 -235 930 -382 358 -147 658 -270 668 -272 11 -4 40 15 85 53 37 33 80 71
97 85 16 14 136 118 265 230 129 111 282 244 340 294 58 50 258 224 445 386
479 414 1051 909 1240 1073 88 76 234 203 325 281 91 79 289 250 440 381 152
132 489 424 750 649 260 226 604 523 764 662 160 138 292 250 294 248 2 -2
-76 -102 -174 -222 -98 -120 -347 -425 -553 -678 -477 -585 -432 -530 -872
-1070 -206 -253 -426 -523 -489 -600 -63 -77 -203 -249 -311 -381 -108 -133
-218 -268 -245 -301 -97 -118 -221 -269 -813 -996 l-601 -738 0 -854 c0 -842
0 -855 21 -910 46 -122 174 -203 305 -192 120 9 154 37 371 304 168 207 914
1117 950 1158 l38 44 630 -258 c347 -142 765 -313 930 -381 683 -280 630 -261
716 -257 60 3 86 9 122 30 63 38 107 83 133 142 31 70 1249 7388 1240 7453
-13 99 -78 187 -170 232 -60 28 -165 36 -218 16z"/>
</g>
</svg>
